<svg width="71" height="15" viewBox="0 0 71 15" fill="none" xmlns="http://www.w3.org/2000/svg">
<path d="M7.47346 3.02945C6.86788 3.02945 6.31047 3.14867 5.8012 3.3871C5.29196 3.6115 4.84465 3.92707 4.45928 4.3338C4.08768 4.72651 3.79177 5.19636 3.57156 5.74334C3.36511 6.2763 3.26188 6.85133 3.26188 7.46844C3.26188 8.09958 3.36511 8.68864 3.57156 9.23562C3.79177 9.78261 4.09456 10.2595 4.47993 10.6662C4.8653 11.0589 5.31948 11.3745 5.84249 11.6129C6.37929 11.8373 6.95734 11.9495 7.57669 11.9495C8.44377 11.9495 9.20075 11.7391 9.84762 11.3184C10.5083 10.8976 11.0381 10.3296 11.4373 9.61431L13.9353 11.3815C13.2471 12.5175 12.38 13.4081 11.334 14.0533C10.3018 14.6844 9.06311 15 7.61798 15C6.53068 15 5.51905 14.8107 4.58315 14.432C3.66102 14.0393 2.85587 13.5063 2.16771 12.8331C1.49331 12.1459 0.963425 11.3464 0.578055 10.4348C0.192685 9.50912 0 8.52034 0 7.46844C0 6.41655 0.192685 5.4418 0.578055 4.54418C0.963425 3.63254 1.48643 2.84012 2.14706 2.1669C2.82146 1.49369 3.61973 0.967745 4.54186 0.589063C5.464 0.196356 6.46187 0 7.5354 0C8.93924 0 10.1779 0.294532 11.2515 0.883592C12.325 1.47265 13.199 2.37728 13.8734 3.59748L11.334 5.38569C10.9211 4.68443 10.3981 4.11641 9.76504 3.68163C9.14569 3.24684 8.38183 3.02945 7.47346 3.02945ZM24.3558 9.06732H18.3688V14.7055H15.1688V0.294529H18.3688V6.07994H24.3558V0.294529H27.5557V14.7055H24.3558V9.06732ZM29.2815 14.7055V0.294529H32.4814V14.7055H29.2815ZM42.438 0.294529H46.1747L40.5593 7.48948L46.3399 14.7055H42.1903L37.4007 8.56241V14.7055H34.2007V0.294529H37.4007V7.00561L42.438 0.294529ZM51.2565 14.979C49.4535 14.979 48.0703 14.5582 47.1068 13.7167C46.1572 12.8611 45.6342 11.69 45.5378 10.2034H48.7378C48.7516 10.4839 48.8066 10.7574 48.9029 11.0238C48.9993 11.2763 49.1438 11.5077 49.3365 11.7181C49.5429 11.9145 49.8044 12.0757 50.121 12.202C50.4513 12.3282 50.8573 12.3913 51.339 12.3913C52.1511 12.3913 52.7566 12.244 53.1558 11.9495C53.5687 11.655 53.7751 11.2833 53.7751 10.8345C53.7751 10.554 53.6926 10.3226 53.5274 10.1403C53.376 9.95793 53.1627 9.80365 52.8874 9.67742C52.6121 9.53717 52.2887 9.42496 51.9171 9.34081C51.5592 9.24264 51.1808 9.15147 50.7816 9.06732C50.2173 8.92707 49.6393 8.77279 49.0475 8.60449C48.4556 8.42216 47.9189 8.1627 47.4372 7.82609C46.9555 7.48948 46.5563 7.0547 46.2398 6.52174C45.937 5.97476 45.7856 5.27349 45.7856 4.41795C45.7856 3.78682 45.9026 3.20477 46.1365 2.67181C46.3705 2.12482 46.7146 1.66199 47.1688 1.28331C47.623 0.890604 48.1735 0.582049 48.8204 0.357645C49.481 0.133241 50.238 0.021037 51.0913 0.021037C51.9584 0.021037 52.7222 0.140253 53.3829 0.378682C54.0573 0.603086 54.6216 0.925665 55.0758 1.34642C55.5437 1.75315 55.9084 2.25105 56.1699 2.84011C56.4314 3.41515 56.5897 4.0533 56.6448 4.75456H53.4242C53.3966 4.17952 53.204 3.68864 52.8461 3.28191C52.4883 2.87518 51.8758 2.67181 51.0087 2.67181C50.3618 2.67181 49.8457 2.79804 49.4604 3.05049C49.075 3.30294 48.8823 3.6676 48.8823 4.14446C48.8823 4.45302 48.9649 4.71249 49.13 4.92286C49.2952 5.11922 49.5154 5.28752 49.7907 5.42777C50.0659 5.56802 50.3825 5.68724 50.7403 5.78541C51.1119 5.88359 51.4973 5.98177 51.8964 6.07994C52.4745 6.20617 53.0594 6.35344 53.6513 6.52174C54.2568 6.69004 54.8074 6.92847 55.3028 7.23703C55.7983 7.54558 56.1975 7.95231 56.5002 8.45722C56.8168 8.96213 56.9751 9.62132 56.9751 10.4348C56.9751 11.094 56.8512 11.7041 56.6035 12.2651C56.3557 12.8121 55.9841 13.2889 55.4886 13.6957C55.0069 14.1024 54.4082 14.418 53.6925 14.6424C52.9906 14.8668 52.1786 14.979 51.2565 14.979ZM63.9604 3.70266L62.123 9.34081H65.7978L63.9604 3.70266ZM66.7474 12.223H61.194L60.3888 14.7055H57.1063L62.1024 0.294529H66.0249L71 14.7055H67.5526L66.7474 12.223Z" fill="#9C3596"/>
</svg>
