<svg width="80" height="80" viewBox="0 0 80 80" fill="none" xmlns="http://www.w3.org/2000/svg">
<rect width="80" height="80" rx="10" fill="#EFE5E3"/>
<path d="M34.5698 40L38.1848 43.63L45.4298 36.37" stroke="#9C3596" stroke-width="1.5" stroke-linecap="round" stroke-linejoin="round"/>
<path d="M38.1248 25.675C39.1598 24.79 40.8548 24.79 41.9048 25.675L44.2748 27.715C44.7248 28.105 45.5648 28.42 46.1648 28.42H48.7148C50.3048 28.42 51.6098 29.725 51.6098 31.315V33.865C51.6098 34.45 51.9248 35.305 52.3148 35.755L54.3548 38.125C55.2398 39.16 55.2398 40.855 54.3548 41.905L52.3148 44.275C51.9248 44.725 51.6098 45.565 51.6098 46.165V48.715C51.6098 50.305 50.3048 51.61 48.7148 51.61H46.1648C45.5798 51.61 44.7248 51.925 44.2748 52.315L41.9048 54.355C40.8698 55.24 39.1748 55.24 38.1248 54.355L35.7548 52.315C35.3048 51.925 34.4648 51.61 33.8648 51.61H31.2698C29.6798 51.61 28.3748 50.305 28.3748 48.715V46.15C28.3748 45.565 28.0598 44.725 27.6848 44.275L25.6598 41.89C24.7898 40.855 24.7898 39.175 25.6598 38.14L27.6848 35.755C28.0598 35.305 28.3748 34.465 28.3748 33.88V31.3C28.3748 29.71 29.6798 28.405 31.2698 28.405H33.8648C34.4498 28.405 35.3048 28.09 35.7548 27.7L38.1248 25.675Z" stroke="#9C3596" stroke-width="1.5" stroke-linecap="round" stroke-linejoin="round"/>
</svg>
