<svg width="80" height="80" viewBox="0 0 80 80" fill="none" xmlns="http://www.w3.org/2000/svg">
<rect width="80" height="80" rx="10" fill="#EFE5E3"/>
<path d="M42.5949 27.265L45.2349 32.545C45.5949 33.28 46.5549 33.985 47.3649 34.12L52.1499 34.915C55.2099 35.425 55.9299 37.645 53.7249 39.835L50.0049 43.555C49.3749 44.185 49.0299 45.4 49.2249 46.27L50.2899 50.875C51.1299 54.52 49.1949 55.93 45.9699 54.025L41.4849 51.37C40.6749 50.89 39.3399 50.89 38.5149 51.37L34.0299 54.025C30.8199 55.93 28.8699 54.505 29.7099 50.875L30.7749 46.27C30.9699 45.4 30.6249 44.185 29.9949 43.555L26.2749 39.835C24.0849 37.645 24.7899 35.425 27.8499 34.915L32.6349 34.12C33.4299 33.985 34.3899 33.28 34.7499 32.545L37.3899 27.265C38.8299 24.4 41.1699 24.4 42.5949 27.265Z" stroke="#9C3596" stroke-width="1.5" stroke-linecap="round" stroke-linejoin="round"/>
</svg>
